<svg xmlns="http://www.w3.org/2000/svg" xmlns:xlink="http://www.w3.org/1999/xlink" width="400" height="400" viewbox="0 0 1133.86 1133.86">
  <defs>
    <style>
      .cls-1 {
        fill: #19211b;
      }
      .cls-2 {
        fill: url("#Dégradé_sans_nom_23");
      }
      .cls-3 {
        fill: url("#Dégradé_sans_nom_51");
      }
      .cls-4 {
        fill: url("#Dégradé_sans_nom_51-2");
      }
      .cls-5 {
        fill: url("#Dégradé_sans_nom_5");
      }
      .cls-6 {
        fill: url("#Dégradé_sans_nom_5-2");
      }
      .cls-7 {
        fill: url("#Dégradé_sans_nom_5-3");
      }
    </style>
    <lineargradient id="Dégradé_sans_nom_23" x1="307.42" y1="170.43" x2="687.71" y2="829.1" gradientunits="userSpaceOnUse"><stop offset="0" stop-color="#fec576"/><stop offset="1" stop-color="#e07433"/></lineargradient>
    <lineargradient id="Dégradé_sans_nom_51" x1="82.02" y1="478.59" x2="672.74" y2="819.64" gradientunits="userSpaceOnUse"><stop offset="0" stop-color="#fbac44"/><stop offset="1" stop-color="#d45a32"/></lineargradient><lineargradient id="Dégradé_sans_nom_51-2" x1="597.98" y1="215.8" x2="744.26" y2="469.15" xlink:href="#Dégradé_sans_nom_51"/>
    <lineargradient id="Dégradé_sans_nom_5" x1="653.81" y1="159.19" x2="653.81" y2="550.5" gradientunits="userSpaceOnUse"><stop offset="0" stop-color="#65c18d"/><stop offset="0.22" stop-color="#68be8b"/><stop offset="0.39" stop-color="#70b483"/><stop offset="0.56" stop-color="#7fa276"/><stop offset="0.71" stop-color="#938a63"/><stop offset="0.86" stop-color="#ad6b4c"/><stop offset="1" stop-color="#cc4730"/></lineargradient><lineargradient id="Dégradé_sans_nom_5-2" x1="176.18" y1="558.56" x2="357.91" y2="558.56" xlink:href="#Dégradé_sans_nom_5"/><lineargradient id="Dégradé_sans_nom_5-3" x1="127.7" y1="788.86" x2="499.22" y2="788.86" xlink:href="#Dégradé_sans_nom_5"/></defs>
  <title>uFix</title>
  <g id="fondsNoir"><path class="cls-1" d="M746.77,740.3a438,438,0,0,0-34.17,34.33c-4.25,4.72-25.45,31-58.15,64.76-42.47,43.88-107.87,71-173.57,86.34a350.77,350.77,0,0,0,69.43,6.93c168.67,0,309.89-119.59,343.43-278.41A426.25,426.25,0,0,0,746.77,740.3Z"/><path class="cls-1" d="M428.86,465.79c2.66-9.77,39.05-154,147.25-234.17-8.52-.65-17.11-1-25.8-1C453.36,230.61,365.54,270.19,302,334,330.53,374.36,371.16,420.55,428.86,465.79Z"/><path class="cls-1" d="M740,286.53C700.56,342,686.16,413,737.22,500.92a294.9,294.9,0,0,0,19.85,29.45c37.76-18.17,3.68-68.92,3.68-68.92s35.06,21.79,125.8,44.13c2.06.51,4.33,1.1,6.75,1.74C873.33,415,817,336.17,740,286.53Z"/><path class="cls-1" d="M344.82,865.94c48.28-4.76,91.17-15.77,115.78-37.88C414.26,819.13,282.34,781.84,201,616,211,718.66,265.47,808.46,344.82,865.94Z"/><path class="cls-1" d="M314.39,593.67c-19.6-28.5-56.51-86.27-80.7-163.5a347.42,347.42,0,0,0-27.81,83.95C247,557.43,289.17,581.73,314.39,593.67Z"/></g>
  <g id="phoenix"><path id="corp" class="cls-2" d="M749.6,533.06c-1.86.58-3.52,1.16-4.93,1.48a350.65,350.65,0,0,1-25-35.94C583.7,274,873.16,165.41,879.38,159.19c-231.08,0-314,153.08-314,153.08s12.88-73.84,95.7-123.07C485.61,239,431.51,453.79,428.24,465.79c-151.68-118.93-185.5-244.42-192-254.24-42.55,218.23,99.3,384.09,101.48,391.73-109.12-21.82-155-117.85-161.49-124.39C243.83,785.5,467.11,804.05,476.93,806.24,413.64,953.54,140.79,857.74,127.7,861c57.62,14.24,110.2,29.66,155.55,43.94,56.41,15.22,266.42,5.13,359.18-90.7,30.49-31.51,50.27-56,54.23-60.39a406.72,406.72,0,0,1,31.87-32c139-124.88,311.71-103.28,323.85-103.28-22.41-42.51-59-71.1-94.79-89-17.19-8.59-53-19.4-71.66-24-90.74-22.34-125.8-44.13-125.8-44.13S798.06,517.92,749.6,533.06Z"/>
    <g id="ailes"><path class="cls-3" d="M729.21,721.84a406.72,406.72,0,0,0-31.87,32c-4.17,4.64-25.89,31.55-59.2,65.48C546.93,912.27,412.27,940.46,286.71,906c-97.34-26.72-159-45-159-45,13.09-3.27,311,50.1,349.23-54.77-9.82-2.19-233.1-20.74-300.75-327.35,6.54,6.54,52.37,102.57,161.49,124.39-2.18-7.64-144-173.5-101.48-391.73C236.19,211.55,239.5,587.25,729.21,721.84Z"/><path class="cls-4" d="M428.24,465.79S469.68,244.17,661.09,189.2c-9.75,6.12-78.18,51.5-95.7,123.07,2.84-4.75,83.14-154.76,314-153.08-6,2.83-328.58,113.64-201.19,348.11C667.41,509,544.9,548.9,428.24,465.79Z"/></g>
    <g id="ombres"><path class="cls-5" d="M719.42,498.27c6.78,12.12,15.71,24.2,25.25,36.27,0,0-179.17,65.47-316.43-68.75,79.39,59.67,190.57,51.64,250,41.51,0,0-155.62-233.38,201.19-348.11C871.11,163.48,597.05,279.69,719.42,498.27Z"/><path class="cls-6" d="M176.18,478.89C248,575.11,337.67,603.28,337.67,603.28s17.63,30.61,20.24,35C357.91,638.23,236.53,622.58,176.18,478.89Z"/><path class="cls-7" d="M499.22,794.46S487.06,916.08,127.7,861c95.3,8.18,311.87,27.66,349.23-54.77,0,0-100.78-3.38-192.29-103.84C406.27,811.26,499.22,794.46,499.22,794.46Z"/></g>
  </g>
</svg>
